<?xml version="1.0" standalone="no"?>
<!DOCTYPE svg PUBLIC "-//W3C//DTD SVG 20010904//EN"
 "http://www.w3.org/TR/2001/REC-SVG-20010904/DTD/svg10.dtd">
<svg version="1.0" xmlns="http://www.w3.org/2000/svg"
 width="200.000000pt" height="200.000000pt" viewBox="0 0 200.000000 200.000000"
 preserveAspectRatio="xMidYMid meet">

<g transform="translate(0.000000,200.000000) scale(0.100000,-0.100000)"
fill="#000000" stroke="none">
<path d="M893 1486 c-253 -83 -353 -384 -197 -596 42 -57 129 -128 142 -115 4
3 7 39 8 78 1 40 3 75 3 80 1 4 72 6 159 5 l157 -3 3 -82 c2 -46 5 -83 8 -83
3 0 25 13 48 29 59 41 104 95 135 161 23 48 26 68 26 155 0 88 -3 107 -27 157
-37 80 -107 152 -186 190 -55 27 -77 32 -151 35 -54 2 -102 -2 -128 -11z m105
-80 c3 -75 2 -78 -28 -106 -21 -19 -30 -37 -30 -59 l0 -31 64 0 c36 0 67 4 71
10 9 15 -21 77 -44 90 -19 9 -21 20 -21 90 0 43 3 81 8 84 13 8 105 -13 151
-36 59 -28 141 -111 168 -169 33 -70 45 -153 32 -223 -18 -103 -84 -206 -158
-249 l-31 -18 0 75 c0 75 0 76 25 76 25 0 26 2 23 58 l-3 57 -64 1 -64 0 -21
-48 -21 -48 -97 0 c-54 0 -98 1 -98 3 0 1 4 17 10 36 8 30 7 36 -10 48 -12 9
-20 25 -19 41 l1 27 8 -30 c7 -29 8 -29 9 -4 0 15 -5 32 -13 38 -19 16 -48
-24 -40 -56 5 -17 2 -23 -11 -23 -13 0 -15 -4 -8 -12 18 -22 22 -68 7 -68 -8
0 -14 -4 -14 -10 0 -5 11 -10 25 -10 24 0 25 -2 25 -75 0 -74 0 -75 -21 -64
-42 22 -111 101 -137 157 -24 50 -27 69 -27 162 0 100 1 108 34 168 39 72 89
120 162 157 48 25 122 45 144 41 6 -2 11 -37 13 -80z m28 -114 c11 -7 34 -45
34 -56 0 -3 -25 -6 -55 -6 -60 0 -61 1 -44 33 13 24 28 37 44 37 6 0 15 -4 21
-8z m-196 -209 c0 -19 -3 -24 -10 -17 -6 6 -8 18 -4 27 9 24 14 21 14 -10z
m319 -75 l-2 -43 -6 35 c-7 33 -5 50 5 50 2 0 3 -19 3 -42z m28 -20 c-2 -13
-4 -3 -4 22 0 25 2 35 4 23 2 -13 2 -33 0 -45z m43 16 c0 -19 -4 -34 -10 -34
-5 0 -10 18 -10 41 0 24 4 38 10 34 6 -3 10 -22 10 -41z m-362 -3 c-2 -18 -10
-27 -25 -29 -19 -3 -23 1 -23 26 0 35 5 41 31 35 15 -4 19 -13 17 -32z m242 4
c-6 -15 -8 -30 -6 -33 3 -2 8 7 12 22 8 35 21 33 21 -4 0 -21 -5 -30 -16 -30
-33 0 -40 13 -25 49 17 40 29 36 14 -4z"/>
<path d="M481 633 c0 -34 3 -42 8 -28 4 11 19 23 32 26 23 7 23 7 -4 8 -34 1
-32 22 4 32 21 6 21 7 -8 8 -33 1 -33 1 -32 -46z"/>
<path d="M590 652 c0 -43 22 -66 53 -58 24 6 27 11 27 46 0 22 -4 40 -10 40
-5 0 -9 -8 -8 -17 3 -39 -3 -53 -22 -53 -16 0 -20 7 -20 35 0 19 -4 35 -10 35
-5 0 -10 -13 -10 -28z"/>
<path d="M730 635 c0 -25 5 -45 10 -45 6 0 10 7 10 15 0 20 9 19 33 -2 20 -17
20 -17 14 1 -4 10 -2 25 4 32 17 20 -6 44 -42 44 -28 0 -29 -2 -29 -45z m55
15 c0 -8 -8 -16 -17 -18 -13 -2 -18 3 -18 18 0 15 5 20 18 18 9 -2 17 -10 17
-18z"/>
<path d="M860 635 c0 -25 5 -45 10 -45 6 0 10 12 10 28 l1 27 24 -27 c13 -16
27 -28 30 -28 3 0 5 20 5 45 0 25 -4 45 -10 45 -5 0 -10 -12 -10 -27 l-1 -28
-22 28 c-13 15 -26 27 -30 27 -4 0 -7 -20 -7 -45z"/>
<path d="M1000 635 c0 -25 5 -45 10 -45 6 0 10 20 10 45 0 25 -4 45 -10 45 -5
0 -10 -20 -10 -45z"/>
<path d="M1073 673 c18 -5 20 -13 18 -50 -1 -11 3 -24 8 -28 7 -4 11 8 11 34
0 29 5 41 18 44 9 3 -3 5 -28 5 -25 0 -37 -2 -27 -5z"/>
<path d="M1192 644 c6 -72 70 -72 76 0 2 21 -1 36 -7 36 -6 0 -11 -16 -11 -35
0 -28 -4 -35 -20 -35 -16 0 -20 7 -20 35 0 19 -5 35 -11 35 -6 0 -9 -15 -7
-36z"/>
<path d="M1330 634 c0 -45 1 -46 15 -28 14 18 16 18 29 2 20 -26 23 -23 22 25
-1 40 -3 42 -33 45 l-33 3 0 -47z m50 16 c0 -13 -7 -20 -20 -20 -19 0 -27 20
-13 33 13 14 33 6 33 -13z"/>
<path d="M1460 635 c0 -43 1 -45 30 -45 17 0 30 5 30 10 0 6 -11 10 -25 10
-14 0 -25 5 -25 10 0 6 12 10 27 10 14 0 23 3 19 7 -4 4 -15 8 -23 8 -29 0
-25 23 4 28 27 4 27 4 -4 6 -33 1 -33 0 -33 -44z"/>
<path d="M620 546 c0 -2 7 -7 16 -10 8 -3 12 -2 9 4 -6 10 -25 14 -25 6z"/>
<path d="M733 535 c-3 -9 -3 -18 -1 -21 3 -3 8 4 11 16 6 23 -1 27 -10 5z"/>
<path d="M1166 534 c-3 -9 -4 -19 -1 -22 3 -3 5 1 5 9 0 11 2 11 10 -1 5 -8
10 -10 10 -5 0 6 -4 16 -9 23 -6 11 -10 10 -15 -4z"/>
<path d="M1312 530 c0 -14 2 -19 5 -12 2 6 2 18 0 25 -3 6 -5 1 -5 -13z"/>
<path d="M671 524 c0 -11 3 -14 6 -6 3 7 2 16 -1 19 -3 4 -6 -2 -5 -13z"/>
<path d="M783 527 c0 -7 11 -13 24 -13 13 0 23 6 23 14 0 12 -3 12 -15 2 -10
-9 -15 -9 -15 -1 0 6 -4 11 -8 11 -5 0 -9 -6 -9 -13z"/>
<path d="M1101 524 c0 -11 3 -14 6 -6 3 7 2 16 -1 19 -3 4 -6 -2 -5 -13z"/>
<path d="M1221 524 c0 -11 3 -14 6 -6 3 7 2 16 -1 19 -3 4 -6 -2 -5 -13z"/>
<path d="M1271 524 c0 -11 3 -14 6 -6 3 7 2 16 -1 19 -3 4 -6 -2 -5 -13z"/>
<path d="M1356 527 c3 -10 9 -15 12 -12 3 3 0 11 -7 18 -10 9 -11 8 -5 -6z"/>
<path d="M1039 518 c17 -22 27 -23 35 -2 5 13 4 14 -7 6 -10 -9 -17 -8 -27 1
-12 10 -12 9 -1 -5z"/>
</g>
</svg>
